<?xml version="1.0" encoding="utf-8"?>
<svg width="51" height="295.001" viewBox="0 0 51 295.001" fill="none" xmlns="http://www.w3.org/2000/svg">
  <path d="M50.9136 153.403L50.9999 183.001L50.8032 183.313L50.7502 197.676C50.7413 197.747 50.7415 197.982 50.7418 198.363C50.7461 203.681 50.7731 237.466 26.5 250.5C0.488592 264.467 3.51659e-06 295.001 3.51659e-06 295.001L3.10366e-06 264.001L0 31L0 0C0 0 0.488588 30.5339 26.4999 44.501C50.773 57.5347 50.746 91.3196 50.7417 96.6382C50.7414 97.0191 50.7413 97.254 50.7501 97.3248L50.8445 129.699L51 130.001L50.9136 153.403Z" fill="#000000" fill-rule="evenodd" />
</svg>