<?xml version="1.0" encoding="utf-8"?>
<svg width="256" height="256" viewBox="0 0 256 256" fill="none" xmlns="http://www.w3.org/2000/svg">
  <g>
    <path d="M54.3096 75.406C54.3053 75.4123 51.9949 111.356 51.9949 111.356L118.04 111.356L119.98 86.7723C119.98 86.7723 130.786 84.5996 137.714 91.4851C144.641 98.3707 141.039 112 141.039 112L172.904 112C172.904 112 174.428 98.8784 171.241 88.1358C168.055 77.3932 160.158 69.0297 160.158 69.0297C160.158 69.0297 162.853 64.9406 167.564 55.1683C172.274 45.396 179 29.9406 179 29.9406L144.641 29.9406C144.641 29.9406 139.49 40.8218 136.165 47.1287C132.84 53.4356 131.341 55.1683 131.341 55.1683C131.341 55.1683 128.7 54.8911 126.344 54.8911C123.989 54.8911 121.919 55.1683 121.919 55.1683L125.799 0L94.2105 0L88.6687 80.1188L85.6207 80.1188L86.5508 61.7843L86.7229 61.8979L89.1301 26L57.5417 26L56.4419 41.9026L59.0111 43.5991L5.26471 24.9505L0 111.356L31.3111 111.356L34.082 68.198C34.082 68.198 54.3121 75.399 54.3096 75.406Z" fill="#000000" fill-rule="evenodd" transform="translate(39 72)" />
  </g>
</svg>